<mxfile host="65bd71144e">
    <diagram id="2AIxm72oJW8YxqA3mfsy" name="Page-1">
        <mxGraphModel dx="1128" dy="761" grid="1" gridSize="10" guides="1" tooltips="1" connect="1" arrows="1" fold="1" page="1" pageScale="1" pageWidth="850" pageHeight="1100" math="0" shadow="0">
            <root>
                <mxCell id="0"/>
                <mxCell id="1" parent="0"/>
                <mxCell id="2" value="Arquivo" style="swimlane;fontStyle=1;align=center;verticalAlign=top;childLayout=stackLayout;horizontal=1;startSize=26;horizontalStack=0;resizeParent=1;resizeParentMax=0;resizeLast=0;collapsible=1;marginBottom=0;" vertex="1" parent="1">
                    <mxGeometry x="80" y="290" width="210" height="170" as="geometry"/>
                </mxCell>
                <mxCell id="3" value="+ tamanhoEmBytes: Long" style="text;strokeColor=none;fillColor=none;align=left;verticalAlign=top;spacingLeft=4;spacingRight=4;overflow=hidden;rotatable=0;points=[[0,0.5],[1,0.5]];portConstraint=eastwest;" vertex="1" parent="2">
                    <mxGeometry y="26" width="210" height="54" as="geometry"/>
                </mxCell>
                <mxCell id="4" value="" style="line;strokeWidth=1;fillColor=none;align=left;verticalAlign=middle;spacingTop=-1;spacingLeft=3;spacingRight=3;rotatable=0;labelPosition=right;points=[];portConstraint=eastwest;strokeColor=inherit;" vertex="1" parent="2">
                    <mxGeometry y="80" width="210" height="8" as="geometry"/>
                </mxCell>
                <mxCell id="5" value="+ constructor(nome: String,&#10;        oculto: ?Boolean,&#10;        privilegio: ?String)&#10;&#10;+ renomear(nome: String): self" style="text;strokeColor=none;fillColor=none;align=left;verticalAlign=top;spacingLeft=4;spacingRight=4;overflow=hidden;rotatable=0;points=[[0,0.5],[1,0.5]];portConstraint=eastwest;" vertex="1" parent="2">
                    <mxGeometry y="88" width="210" height="82" as="geometry"/>
                </mxCell>
                <mxCell id="8" value="Diretorio" style="swimlane;fontStyle=1;align=center;verticalAlign=top;childLayout=stackLayout;horizontal=1;startSize=26;horizontalStack=0;resizeParent=1;resizeParentMax=0;resizeLast=0;collapsible=1;marginBottom=0;" vertex="1" parent="1">
                    <mxGeometry x="390" y="290" width="210" height="170" as="geometry"/>
                </mxCell>
                <mxCell id="9" value="+ nome: String&#10;+ oculto: Boolean&#10;+ privilegio: String" style="text;strokeColor=none;fillColor=none;align=left;verticalAlign=top;spacingLeft=4;spacingRight=4;overflow=hidden;rotatable=0;points=[[0,0.5],[1,0.5]];portConstraint=eastwest;" vertex="1" parent="8">
                    <mxGeometry y="26" width="210" height="54" as="geometry"/>
                </mxCell>
                <mxCell id="10" value="" style="line;strokeWidth=1;fillColor=none;align=left;verticalAlign=middle;spacingTop=-1;spacingLeft=3;spacingRight=3;rotatable=0;labelPosition=right;points=[];portConstraint=eastwest;strokeColor=inherit;" vertex="1" parent="8">
                    <mxGeometry y="80" width="210" height="8" as="geometry"/>
                </mxCell>
                <mxCell id="11" value="+ constructor(nome: String,&#10;        oculto: ?Boolean,&#10;        privilegio: ?String)&#10;&#10;+ renomear(nome: String): self" style="text;strokeColor=none;fillColor=none;align=left;verticalAlign=top;spacingLeft=4;spacingRight=4;overflow=hidden;rotatable=0;points=[[0,0.5],[1,0.5]];portConstraint=eastwest;" vertex="1" parent="8">
                    <mxGeometry y="88" width="210" height="82" as="geometry"/>
                </mxCell>
                <mxCell id="17" style="edgeStyle=none;html=1;entryX=0.5;entryY=0;entryDx=0;entryDy=0;" edge="1" parent="1" target="2">
                    <mxGeometry relative="1" as="geometry">
                        <mxPoint x="340" y="230" as="sourcePoint"/>
                    </mxGeometry>
                </mxCell>
                <mxCell id="12" value="FileSystemEntity" style="swimlane;fontStyle=1;align=center;verticalAlign=top;childLayout=stackLayout;horizontal=1;startSize=26;horizontalStack=0;resizeParent=1;resizeParentMax=0;resizeLast=0;collapsible=1;marginBottom=0;" vertex="1" parent="1">
                    <mxGeometry x="240" y="60" width="210" height="170" as="geometry"/>
                </mxCell>
                <mxCell id="13" value="+ nome: String&#10;+ oculto: Boolean&#10;+ privilegio: String" style="text;strokeColor=none;fillColor=none;align=left;verticalAlign=top;spacingLeft=4;spacingRight=4;overflow=hidden;rotatable=0;points=[[0,0.5],[1,0.5]];portConstraint=eastwest;" vertex="1" parent="12">
                    <mxGeometry y="26" width="210" height="54" as="geometry"/>
                </mxCell>
                <mxCell id="14" value="" style="line;strokeWidth=1;fillColor=none;align=left;verticalAlign=middle;spacingTop=-1;spacingLeft=3;spacingRight=3;rotatable=0;labelPosition=right;points=[];portConstraint=eastwest;strokeColor=inherit;" vertex="1" parent="12">
                    <mxGeometry y="80" width="210" height="8" as="geometry"/>
                </mxCell>
                <mxCell id="15" value="+ constructor(nome: String,&#10;        oculto: ?Boolean,&#10;        privilegio: ?String)&#10;&#10;+ renomear(nome: String): self" style="text;strokeColor=none;fillColor=none;align=left;verticalAlign=top;spacingLeft=4;spacingRight=4;overflow=hidden;rotatable=0;points=[[0,0.5],[1,0.5]];portConstraint=eastwest;" vertex="1" parent="12">
                    <mxGeometry y="88" width="210" height="82" as="geometry"/>
                </mxCell>
                <mxCell id="18" style="edgeStyle=none;html=1;entryX=0.5;entryY=0;entryDx=0;entryDy=0;exitX=0.481;exitY=1.024;exitDx=0;exitDy=0;exitPerimeter=0;" edge="1" parent="1" source="15" target="8">
                    <mxGeometry relative="1" as="geometry">
                        <mxPoint x="340" y="240" as="sourcePoint"/>
                        <mxPoint x="195" y="300" as="targetPoint"/>
                    </mxGeometry>
                </mxCell>
            </root>
        </mxGraphModel>
    </diagram>
</mxfile>